<svg  xmlns="http://www.w3.org/2000/svg">
    <symbol id="key" viewBox="0 0 52 52">
        <path d="M47.1294 25.9974C47.1294 20.2323 42.4559 15.5588 36.6908 15.5588C32.0783 15.5588 28.165 18.5506 26.7844 22.6994L3.86672 22.6997L0.555723 25.997L6.95616 32.412L10.0727 29.2955L13.1892 32.412L16.3057 29.2955L19.4222 32.412L22.5388 29.2955H26.7844C28.1649 33.4443 32.0783 36.4361 36.6908 36.4361C42.4559 36.4361 47.1295 31.7626 47.1294 25.9974ZM39.2801 29.1538C37.5369 29.1538 36.1237 27.7407 36.1237 25.9974C36.1236 24.2542 37.5368 22.841 39.2801 22.841C41.0233 22.8409 42.4365 24.2542 42.4365 25.9974C42.4365 27.7407 41.0233 29.1539 39.2801 29.1538Z"
              fill="white"/>
    </symbol>
    <symbol id="copy" viewBox="0 0 34.555 34.555">

                <path d="M24.065,34.555H5.489c-1.379,0-2.5-1.122-2.5-2.5V7.864c0-1.378,1.121-2.5,2.5-2.5h2.364c0.276,0,0.5,0.224,0.5,0.5
				s-0.224,0.5-0.5,0.5H5.489c-0.827,0-1.5,0.673-1.5,1.5v24.19c0,0.827,0.673,1.5,1.5,1.5h18.576c0.827,0,1.5-0.673,1.5-1.5v-2.365
				c0-0.276,0.224-0.5,0.5-0.5s0.5,0.224,0.5,0.5v2.365C26.565,33.433,25.444,34.555,24.065,34.555z"/>

                <path d="M29.065,29.19H10.489c-1.379,0-2.5-1.122-2.5-2.5V2.5c0-1.378,1.121-2.5,2.5-2.5h13.604c0.276,0,0.5,0.224,0.5,0.5
				S24.37,1,24.094,1H10.489c-0.827,0-1.5,0.673-1.5,1.5v24.19c0,0.827,0.673,1.5,1.5,1.5h18.576c0.827,0,1.5-0.673,1.5-1.5V7.661
				c0-0.276,0.224-0.5,0.5-0.5s0.5,0.224,0.5,0.5V26.69C31.565,28.069,30.444,29.19,29.065,29.19z"/>
                <path d="M31.065,8.161h-6.972c-0.276,0-0.5-0.224-0.5-0.5V0.688c0-0.276,0.224-0.5,0.5-0.5s0.5,0.224,0.5,0.5v6.473h6.472
				c0.276,0,0.5,0.224,0.5,0.5S31.342,8.161,31.065,8.161z"/>
                <path d="M31.065,8.161c-0.13,0-0.26-0.051-0.358-0.151l-6.972-7.161c-0.192-0.198-0.188-0.514,0.01-0.707
				c0.197-0.191,0.516-0.187,0.707,0.01l6.972,7.161c0.192,0.198,0.188,0.514-0.01,0.707C31.317,8.114,31.191,8.161,31.065,8.161z"
                />

    </symbol>
    <symbol id="arrow-down" viewBox="0 0 451.847 451.847">
        <path d="M225.923,354.706c-8.098,0-16.195-3.092-22.369-9.263L9.27,151.157c-12.359-12.359-12.359-32.397,0-44.751
		c12.354-12.354,32.388-12.354,44.748,0l171.905,171.915l171.906-171.909c12.359-12.354,32.391-12.354,44.744,0
		c12.365,12.354,12.365,32.392,0,44.751L248.292,345.449C242.115,351.621,234.018,354.706,225.923,354.706z"/>
    </symbol>
    <symbol id="edit" viewBox="0 -1 401.52289 401">
        <path d="m370.589844 250.972656c-5.523438 0-10 4.476563-10 10v88.789063c-.019532 16.5625-13.4375 29.984375-30 30h-280.589844c-16.5625-.015625-29.980469-13.4375-30-30v-260.589844c.019531-16.558594 13.4375-29.980469 30-30h88.789062c5.523438 0 10-4.476563 10-10 0-5.519531-4.476562-10-10-10h-88.789062c-27.601562.03125-49.96875 22.398437-50 50v260.59375c.03125 27.601563 22.398438 49.96875 50 50h280.589844c27.601562-.03125 49.96875-22.398437 50-50v-88.792969c0-5.523437-4.476563-10-10-10zm0 0"/>
        <path d="m376.628906 13.441406c-17.574218-17.574218-46.066406-17.574218-63.640625 0l-178.40625 178.40625c-1.222656 1.222656-2.105469 2.738282-2.566406 4.402344l-23.460937 84.699219c-.964844 3.472656.015624 7.191406 2.5625 9.742187 2.550781 2.546875 6.269531 3.527344 9.742187 2.566406l84.699219-23.464843c1.664062-.460938 3.179687-1.34375 4.402344-2.566407l178.402343-178.410156c17.546875-17.585937 17.546875-46.054687 0-63.640625zm-220.257812 184.90625 146.011718-146.015625 47.089844 47.089844-146.015625 146.015625zm-9.40625 18.875 37.621094 37.625-52.039063 14.417969zm227.257812-142.546875-10.605468 10.605469-47.09375-47.09375 10.609374-10.605469c9.761719-9.761719 25.589844-9.761719 35.351563 0l11.738281 11.734375c9.746094 9.773438 9.746094 25.589844 0 35.359375zm0 0"/>
    </symbol>
    <symbol id="settings" viewBox="0 0 512 512">
        <path d="m256 133.609375c-67.484375 0-122.390625 54.90625-122.390625 122.390625s54.90625 122.390625 122.390625 122.390625 122.390625-54.90625 122.390625-122.390625-54.90625-122.390625-122.390625-122.390625zm0 214.183594c-50.613281 0-91.792969-41.179688-91.792969-91.792969s41.179688-91.792969 91.792969-91.792969 91.792969 41.179688 91.792969 91.792969-41.179688 91.792969-91.792969 91.792969zm0 0"/>
        <path d="m499.953125 197.703125-39.351563-8.554687c-3.421874-10.476563-7.660156-20.695313-12.664062-30.539063l21.785156-33.886719c3.890625-6.054687 3.035156-14.003906-2.050781-19.089844l-61.304687-61.304687c-5.085938-5.085937-13.035157-5.941406-19.089844-2.050781l-33.886719 21.785156c-9.84375-5.003906-20.0625-9.242188-30.539063-12.664062l-8.554687-39.351563c-1.527344-7.03125-7.753906-12.046875-14.949219-12.046875h-86.695312c-7.195313 0-13.421875 5.015625-14.949219 12.046875l-8.554687 39.351563c-10.476563 3.421874-20.695313 7.660156-30.539063 12.664062l-33.886719-21.785156c-6.054687-3.890625-14.003906-3.035156-19.089844 2.050781l-61.304687 61.304687c-5.085937 5.085938-5.941406 13.035157-2.050781 19.089844l21.785156 33.886719c-5.003906 9.84375-9.242188 20.0625-12.664062 30.539063l-39.351563 8.554687c-7.03125 1.53125-12.046875 7.753906-12.046875 14.949219v86.695312c0 7.195313 5.015625 13.417969 12.046875 14.949219l39.351563 8.554687c3.421874 10.476563 7.660156 20.695313 12.664062 30.539063l-21.785156 33.886719c-3.890625 6.054687-3.035156 14.003906 2.050781 19.089844l61.304687 61.304687c5.085938 5.085937 13.035157 5.941406 19.089844 2.050781l33.886719-21.785156c9.84375 5.003906 20.0625 9.242188 30.539063 12.664062l8.554687 39.351563c1.527344 7.03125 7.753906 12.046875 14.949219 12.046875h86.695312c7.195313 0 13.421875-5.015625 14.949219-12.046875l8.554687-39.351563c10.476563-3.421874 20.695313-7.660156 30.539063-12.664062l33.886719 21.785156c6.054687 3.890625 14.003906 3.039063 19.089844-2.050781l61.304687-61.304687c5.085937-5.085938 5.941406-13.035157 2.050781-19.089844l-21.785156-33.886719c5.003906-9.84375 9.242188-20.0625 12.664062-30.539063l39.351563-8.554687c7.03125-1.53125 12.046875-7.753906 12.046875-14.949219v-86.695312c0-7.195313-5.015625-13.417969-12.046875-14.949219zm-18.550781 89.3125-36.082032 7.84375c-5.542968 1.207031-9.964843 5.378906-11.488281 10.839844-3.964843 14.222656-9.667969 27.976562-16.949219 40.878906-2.789062 4.941406-2.617187 11.019531.453126 15.792969l19.980468 31.078125-43.863281 43.867187-31.082031-19.980468c-4.773438-3.070313-10.851563-3.242188-15.789063-.453126-12.90625 7.28125-26.660156 12.984376-40.882812 16.949219-5.460938 1.523438-9.632813 5.945313-10.839844 11.488281l-7.84375 36.082032h-62.03125l-7.84375-36.082032c-1.207031-5.542968-5.378906-9.964843-10.839844-11.488281-14.222656-3.964843-27.976562-9.667969-40.878906-16.949219-4.941406-2.789062-11.019531-2.613281-15.792969.453126l-31.078125 19.980468-43.863281-43.867187 19.976562-31.078125c3.070313-4.773438 3.246094-10.851563.457032-15.792969-7.28125-12.902344-12.984375-26.65625-16.953125-40.878906-1.523438-5.460938-5.941407-9.632813-11.484375-10.839844l-36.085938-7.84375v-62.03125l36.082032-7.84375c5.542968-1.207031 9.964843-5.378906 11.488281-10.839844 3.964843-14.222656 9.667969-27.976562 16.949219-40.878906 2.789062-4.941406 2.617187-11.019531-.453126-15.792969l-19.980468-31.078125 43.863281-43.867187 31.082031 19.980468c4.773438 3.070313 10.851563 3.242188 15.789063.453126 12.90625-7.28125 26.660156-12.984376 40.882812-16.949219 5.460938-1.523438 9.632813-5.945313 10.839844-11.488281l7.84375-36.082032h62.03125l7.84375 36.082032c1.207031 5.542968 5.378906 9.964843 10.839844 11.488281 14.222656 3.964843 27.976562 9.667969 40.878906 16.949219 4.941406 2.789062 11.019531 2.613281 15.792969-.453126l31.078125-19.980468 43.863281 43.867187-19.976562 31.078125c-3.070313 4.773438-3.246094 10.851563-.457032 15.792969 7.285156 12.902344 12.984375 26.65625 16.953125 40.878906 1.523438 5.460938 5.941407 9.632813 11.484375 10.839844l36.085938 7.84375zm0 0"/>
    </symbol>
</svg>


