<svg  xmlns="http://www.w3.org/2000/svg">
    <symbol id="key" viewBox="0 0 52 52">
        <path d="M47.1294 25.9974C47.1294 20.2323 42.4559 15.5588 36.6908 15.5588C32.0783 15.5588 28.165 18.5506 26.7844 22.6994L3.86672 22.6997L0.555723 25.997L6.95616 32.412L10.0727 29.2955L13.1892 32.412L16.3057 29.2955L19.4222 32.412L22.5388 29.2955H26.7844C28.1649 33.4443 32.0783 36.4361 36.6908 36.4361C42.4559 36.4361 47.1295 31.7626 47.1294 25.9974ZM39.2801 29.1538C37.5369 29.1538 36.1237 27.7407 36.1237 25.9974C36.1236 24.2542 37.5368 22.841 39.2801 22.841C41.0233 22.8409 42.4365 24.2542 42.4365 25.9974C42.4365 27.7407 41.0233 29.1539 39.2801 29.1538Z"
              fill="white"/>
    </symbol>
    <symbol id="copy" viewBox="0 0 34.555 34.555">

                <path d="M24.065,34.555H5.489c-1.379,0-2.5-1.122-2.5-2.5V7.864c0-1.378,1.121-2.5,2.5-2.5h2.364c0.276,0,0.5,0.224,0.5,0.5
				s-0.224,0.5-0.5,0.5H5.489c-0.827,0-1.5,0.673-1.5,1.5v24.19c0,0.827,0.673,1.5,1.5,1.5h18.576c0.827,0,1.5-0.673,1.5-1.5v-2.365
				c0-0.276,0.224-0.5,0.5-0.5s0.5,0.224,0.5,0.5v2.365C26.565,33.433,25.444,34.555,24.065,34.555z"/>

                <path d="M29.065,29.19H10.489c-1.379,0-2.5-1.122-2.5-2.5V2.5c0-1.378,1.121-2.5,2.5-2.5h13.604c0.276,0,0.5,0.224,0.5,0.5
				S24.37,1,24.094,1H10.489c-0.827,0-1.5,0.673-1.5,1.5v24.19c0,0.827,0.673,1.5,1.5,1.5h18.576c0.827,0,1.5-0.673,1.5-1.5V7.661
				c0-0.276,0.224-0.5,0.5-0.5s0.5,0.224,0.5,0.5V26.69C31.565,28.069,30.444,29.19,29.065,29.19z"/>
                <path d="M31.065,8.161h-6.972c-0.276,0-0.5-0.224-0.5-0.5V0.688c0-0.276,0.224-0.5,0.5-0.5s0.5,0.224,0.5,0.5v6.473h6.472
				c0.276,0,0.5,0.224,0.5,0.5S31.342,8.161,31.065,8.161z"/>
                <path d="M31.065,8.161c-0.13,0-0.26-0.051-0.358-0.151l-6.972-7.161c-0.192-0.198-0.188-0.514,0.01-0.707
				c0.197-0.191,0.516-0.187,0.707,0.01l6.972,7.161c0.192,0.198,0.188,0.514-0.01,0.707C31.317,8.114,31.191,8.161,31.065,8.161z"
                />

    </symbol>
    <symbol id="arrow-down" viewBox="0 0 451.847 451.847">
        <path d="M225.923,354.706c-8.098,0-16.195-3.092-22.369-9.263L9.27,151.157c-12.359-12.359-12.359-32.397,0-44.751
		c12.354-12.354,32.388-12.354,44.748,0l171.905,171.915l171.906-171.909c12.359-12.354,32.391-12.354,44.744,0
		c12.365,12.354,12.365,32.392,0,44.751L248.292,345.449C242.115,351.621,234.018,354.706,225.923,354.706z"/>
    </symbol>
    <symbol id="edit" viewBox="0 -1 401.52289 401">
        <path d="m370.589844 250.972656c-5.523438 0-10 4.476563-10 10v88.789063c-.019532 16.5625-13.4375 29.984375-30 30h-280.589844c-16.5625-.015625-29.980469-13.4375-30-30v-260.589844c.019531-16.558594 13.4375-29.980469 30-30h88.789062c5.523438 0 10-4.476563 10-10 0-5.519531-4.476562-10-10-10h-88.789062c-27.601562.03125-49.96875 22.398437-50 50v260.59375c.03125 27.601563 22.398438 49.96875 50 50h280.589844c27.601562-.03125 49.96875-22.398437 50-50v-88.792969c0-5.523437-4.476563-10-10-10zm0 0"/>
        <path d="m376.628906 13.441406c-17.574218-17.574218-46.066406-17.574218-63.640625 0l-178.40625 178.40625c-1.222656 1.222656-2.105469 2.738282-2.566406 4.402344l-23.460937 84.699219c-.964844 3.472656.015624 7.191406 2.5625 9.742187 2.550781 2.546875 6.269531 3.527344 9.742187 2.566406l84.699219-23.464843c1.664062-.460938 3.179687-1.34375 4.402344-2.566407l178.402343-178.410156c17.546875-17.585937 17.546875-46.054687 0-63.640625zm-220.257812 184.90625 146.011718-146.015625 47.089844 47.089844-146.015625 146.015625zm-9.40625 18.875 37.621094 37.625-52.039063 14.417969zm227.257812-142.546875-10.605468 10.605469-47.09375-47.09375 10.609374-10.605469c9.761719-9.761719 25.589844-9.761719 35.351563 0l11.738281 11.734375c9.746094 9.773438 9.746094 25.589844 0 35.359375zm0 0"/>
    </symbol>
</svg>


